<svg xmlns="http://www.w3.org/2000/svg">
	<defs>
		<g id="logo" fill="none" fill-rule="evenodd" font-family="Helvetica">
			<text font-size="35">
				<tspan x="0" y="34" fill="#000">SH</tspan>
				<tspan x="48.621" y="34" fill="#8BC34A">O</tspan>
				<tspan x="75.845" y="34" fill="#000">PPE</tspan>
			</text>
			<text fill="#000" font-size="12">
				<tspan x="32" y="50">Smart Marketplace</tspan>
			</text>
		</g>
		<g>
			<path id="liked" fill="#C8C8C8" fill-rule="evenodd" d="M14 26l-1.96-1.978C4.76 17.522 0 13.142 0 7.772 0 3.392 3.36 0 7.7 0c2.38 0 4.76 1.13 6.3 2.967C15.54 1.131 17.92 0 20.3 0 24.639 0 28 3.39 28 7.772c0 5.37-4.76 9.75-12.04 16.25L14 26z"/>
		</g>
		<g>
			<path id="cart" fill="#C8C8C8" fill-rule="evenodd" d="M11.656 9.002v.03c0 1.863 1.427 3.374 3.188 3.374 1.76 0 3.188-1.51 3.188-3.375v-.029h12.36c.888 0 1.609.756 1.609 1.688 0 .932-.72 1.687-1.61 1.687h-.995L23.424 27H8.417L2.443 12.376l-.836.001C.721 12.377 0 11.622 0 10.69s.72-1.687 1.607-1.687h10.05zm-.686 5.592h-.44a1 1 0 0 0-1 .998v7.035a1 1 0 0 0 1 .998h.44a.998.998 0 0 0 .999-.998v-7.035a.998.998 0 0 0-.999-.998zm5.22 0h-.473a1 1 0 0 0-1 .998v7.035a1 1 0 0 0 1 .998h.472c.551 0 .999-.447.999-.998v-7.035a.999.999 0 0 0-.999-.998zm5.155 0h-.47a.998.998 0 0 0-1 .998v7.035c0 .551.447.998 1 .998h.47a1 1 0 0 0 1-.998v-7.035a.999.999 0 0 0-1-.998zM19.529.188c.66.423.884 1.36.504 2.094l-3.675 7.08c-.381.733-1.224.985-1.883.561-.66-.423-.885-1.36-.505-2.094L17.645.75c.381-.733 1.223-.984 1.884-.561z"/>
		</g>
		<g>
			<path id="arrow-down" fill="#9B9B9A" fill-rule="evenodd" d="M4.51 5.018L0 0h9.02z"/>
		</g>
		<g>
			<path id="arrow-right" fill="#9B9B9A" fill-rule="evenodd" d="M5.005 4L.99 8.008V-.01z"/>
		</g>
		<g>
			<path id="cross" fill="#C8C8C8" fill-rule="evenodd" d="M15 .87L14.13 0 7.5 6.63.87 0 0 .87 6.63 7.5 0 14.13l.87.87L7.5 8.37 14.13 15l.87-.87L8.37 7.5z"/>
		</g>
		<g>
			<path id="cross-colorless" fill-rule="evenodd" d="M15 .87L14.13 0 7.5 6.63.87 0 0 .87 6.63 7.5 0 14.13l.87.87L7.5 8.37 14.13 15l.87-.87L8.37 7.5z"/>
		</g>
		<g>
			<path id="check-mark" fill="#8BC34A" fill-rule="evenodd" d="M.116 4.4A.443.443 0 0 1 0 4.12c0-.08.039-.2.116-.28l.538-.56a.361.361 0 0 1 .538 0l.04.04 2.114 2.36c.077.08.192.08.27 0L8.769.12h.038a.362.362 0 0 1 .539 0l.539.56c.153.16.153.4 0 .56L3.73 7.88a.342.342 0 0 1-.27.12.344.344 0 0 1-.269-.12l-3-3.36-.076-.12z"/>
		</g>
		<g>
			<path id="facebook" fill="#FFF" fill-rule="evenodd" d="M7.733.497L6.005.494c-1.94 0-3.194 1.125-3.194 2.866v1.321H1.073c-.149 0-.271.106-.271.238v1.914c0 .131.122.238.271.238H2.81v4.83c0 .132.122.239.271.239h2.266c.152 0 .273-.107.273-.238V7.07h2.031c.15 0 .271-.107.271-.238l.002-1.914a.224.224 0 0 0-.08-.168.29.29 0 0 0-.192-.07H5.62v-1.12c0-.538.147-.812.95-.812h1.162c.152 0 .273-.106.273-.237V.734c0-.131-.12-.237-.272-.237z"/>
		</g>
		<g>
			<path id="pinterest" fill="#FFF" fill-rule="evenodd" d="M2.554 8.194c.674-1.096-.217-1.337-.357-2.131C1.627 2.815 6.27.597 8.701 2.866c1.683 1.572.574 6.404-2.138 5.901-2.598-.479 1.273-4.326-.801-5.08C4.077 3.073 3.182 5.564 3.98 6.8c-.468 2.13-1.476 4.134-1.068 6.802 1.325-.883 1.772-2.577 2.138-4.344.666.373 1.023.76 1.871.82 3.131.223 4.88-2.876 4.452-5.737C10.993 1.807 8.246.515 5.315.818 2.998 1.058.689 2.78.593 5.244.535 6.748 1 7.877 2.553 8.194z"/>
		</g>
		<g>
			<path id="twitter" fill="#FFF" fill-rule="evenodd" d="M13.226 1.065a5.94 5.94 0 0 1-1.719.573c-.492-.46-1.195-.745-1.974-.745C8.04.893 6.828 1.95 6.828 3.25c0 .184.025.364.07.537-2.246-.099-4.24-1.037-5.575-2.463A2.112 2.112 0 0 0 .96 2.51c0 .818.477 1.539 1.202 1.961a3.01 3.01 0 0 1-1.225-.296v.03c0 1.142.933 2.094 2.169 2.311a3.082 3.082 0 0 1-1.222.04c.345.937 1.343 1.618 2.527 1.638C3.483 8.824 2.317 9.2 1.05 9.2c-.218 0-.434-.011-.645-.033a8.498 8.498 0 0 0 4.146 1.06c4.976 0 7.696-3.592 7.696-6.707l-.008-.305c.53-.331.99-.746 1.35-1.218a6.048 6.048 0 0 1-1.552.37c.559-.29.987-.753 1.19-1.303z"/>
		</g>
		<g>
			<path id="instagram" fill="#FFF" fill-rule="evenodd" d="M10.016.021c.379 0 .704.132.977.396.272.264.407.58.407.949v7.795c0 .369-.135.686-.407.949a1.354 1.354 0 0 1-.977.396H1.985c-.38 0-.707-.132-.977-.396a1.274 1.274 0 0 1-.41-.949V1.366c0-.368.137-.685.41-.949.27-.264.597-.396.977-.396zM2.794 4.458h-.992v4.424a.4.4 0 0 0 .122.296c.083.08.185.12.307.12h7.517c.117 0 .218-.04.302-.12a.388.388 0 0 0 .127-.296V4.458h-.95c.095.287.141.585.141.894 0 .574-.149 1.103-.45 1.587-.3.485-.707.868-1.223 1.15a3.462 3.462 0 0 1-1.688.424c-.923 0-1.713-.308-2.37-.925-.656-.617-.985-1.362-.985-2.236 0-.309.048-.607.142-.894zm3.213-1.256c-.596 0-1.106.2-1.53.597-.423.398-.637.88-.637 1.444s.214 1.045.638 1.444c.423.398.933.597 1.529.597.601 0 1.112-.2 1.537-.597.424-.399.636-.88.636-1.444s-.212-1.046-.636-1.444a2.166 2.166 0 0 0-1.537-.597zM9.692 1.19H8.468a.472.472 0 0 0-.345.14.453.453 0 0 0-.14.33v1.127a.45.45 0 0 0 .14.334.48.48 0 0 0 .345.137h1.224c.136 0 .25-.046.345-.137a.446.446 0 0 0 .14-.334V1.659a.449.449 0 0 0-.14-.33.47.47 0 0 0-.345-.14z"/>
		</g>
		<g>
			<path id="google-plus-big" fill="#FFF" fill-rule="evenodd" d="M9.977.01a9.932 9.932 0 0 1 6.981 2.857l-2.253 2.455a6.62 6.62 0 0 0-4.728-1.979c-3.674 0-6.651 2.985-6.651 6.667 0 3.683 2.977 6.668 6.65 6.668 2.978 0 5.5-1.962 6.347-4.667h-5.68V8.899h9.31v3.112c-.924 4.565-5.15 8-9.976 8-5.51 0-9.978-4.477-9.978-10C0 4.486 4.466.008 9.977.01zm14.118 6.975v1.909H26v1.636h-1.905v1.91h-1.632v-1.91h-1.905V8.894h1.905v-1.91h1.632z"/>
		</g>
		<g>
			<path id="facebook-big" fill="#FFF" fill-rule="evenodd" d="M12.555.996L9.67.992c-3.24 0-5.334 1.935-5.334 4.93v2.274h-2.9c-.25 0-.454.183-.454.41v3.293c0 .226.203.408.454.408h2.9v8.313c0 .226.203.41.454.41h3.783c.25 0 .453-.185.453-.41v-8.313h3.392c.25 0 .453-.182.453-.408l.002-3.293a.392.392 0 0 0-.133-.29.477.477 0 0 0-.32-.12H9.025V6.269c0-.926.246-1.397 1.586-1.397h1.943c.25 0 .453-.183.453-.41V1.405c0-.225-.203-.408-.453-.408z"/>
		</g>
		<g>
			<path id="pinterest-big" fill="#FFF" fill-rule="evenodd" d="M8.222 16.554c-.676 3.442-1.5 6.742-3.941 8.466-.754-5.202 1.106-9.11 1.97-13.258-1.472-2.412.178-7.267 3.285-6.07 3.823 1.471-3.311 8.967 1.478 9.904 5 .977 7.04-8.44 3.94-11.502-4.479-4.421-13.04-.1-11.987 6.23.256 1.548 1.9 2.017.657 4.153C.757 13.86-.1 11.66.012 8.727.189 3.926 4.445.565 8.715.1 14.113-.487 19.18 2.029 19.88 6.97c.788 5.576-2.437 11.616-8.21 11.181-1.566-.118-2.223-.872-3.45-1.597z"/>
		</g>
		<g>
			<path id="more-info" fill-rule="evenodd" d="M2.055.006l9.947 9.938-1.882 1.88-.024-.024-8.202 8.206-1.889-1.888 8.202-8.205L.174 1.886l1.88-1.88z"/>
		</g>
	</defs>
</svg>
